<?xml version="1.0" encoding="UTF-8" standalone="no"?>
<!-- Created with Inkscape (http://www.inkscape.org/) -->

<svg
   width="226.87987"
   height="53.338646"
   viewBox="0 0 54.025768 12.701265"
   version="1.1"
   id="svg5"
   inkscape:version="1.1.1 (3bf5ae0d25, 2021-09-20)"
   sodipodi:docname="chesstilt_logo.svg"
   xmlns:inkscape="http://www.inkscape.org/namespaces/inkscape"
   xmlns:sodipodi="http://sodipodi.sourceforge.net/DTD/sodipodi-0.dtd"
   xmlns="http://www.w3.org/2000/svg"
   xmlns:svg="http://www.w3.org/2000/svg">
  <sodipodi:namedview
     id="namedview7"
     pagecolor="#ffffff"
     bordercolor="#666666"
     borderopacity="1.0"
     inkscape:pageshadow="2"
     inkscape:pageopacity="0"
     inkscape:pagecheckerboard="0"
     inkscape:document-units="mm"
     showgrid="false"
     showguides="true"
     inkscape:guide-bbox="true"
     inkscape:snap-bbox="true"
     inkscape:bbox-paths="true"
     inkscape:bbox-nodes="true"
     fit-margin-top="0"
     fit-margin-left="0"
     fit-margin-right="0"
     fit-margin-bottom="0"
     units="px"
     scale-x="0.8"
     inkscape:zoom="4.192802"
     inkscape:cx="114.12416"
     inkscape:cy="72.385961"
     inkscape:window-width="1920"
     inkscape:window-height="1017"
     inkscape:window-x="1912"
     inkscape:window-y="-8"
     inkscape:window-maximized="1"
     inkscape:current-layer="layer1" />
  <defs
     id="defs2">
    <rect
       x="223.96426"
       y="49.919746"
       width="182.1396"
       height="89.046036"
       id="rect20383" />
    <rect
       x="37.777103"
       y="49.919746"
       width="164.60023"
       height="90.395218"
       id="rect4191" />
  </defs>
  <g
     inkscape:label="Layer 1"
     inkscape:groupmode="layer"
     id="layer1"
     transform="translate(-15.146633,-15.648586)">
    <g
       aria-label="Chess"
       transform="matrix(0.26458333,0,0,0.26458333,4.8191106,1.0709135)"
       id="text4189"
       style="font-size:40px;line-height:1.25;white-space:pre;shape-inside:url(#rect4191)" />
    <g
       aria-label="Tilt"
       transform="matrix(0.25556787,0.0684792,-0.0684792,0.25556787,-2.2841649,-14.150223)"
       id="text20381"
       style="font-weight:bold;font-size:40px;line-height:1.25;-inkscape-font-specification:'sans-serif, Bold';white-space:pre;shape-inside:url(#rect20383);stroke-width:1.51181;stroke-miterlimit:4;stroke-dasharray:none">
      <path
         id="path23096"
         d="m 295.91797,86.217822 q -1.13281,0.292969 -2.40235,0.449219 -1.26953,0.175781 -3.10546,0.175781 -4.10157,0 -6.11329,-1.660156 -1.99218,-1.660156 -1.99218,-5.683594 V 69.245166 h -2.89063 v -4.765625 h 2.89063 V 58.21001 h 7.03125 v 6.269531 h 6.58203 v 4.765625 h -6.58203 v 7.773437 q 0,1.152344 0.0195,2.011719 0.0195,0.859375 0.3125,1.542969 0.27344,0.683594 0.95703,1.09375 0.70312,0.390625 2.03125,0.390625 0.54687,0 1.42578,-0.234375 0.89844,-0.234375 1.25,-0.429688 h 0.58594 z m -20.66406,0.195313 h -7.03125 V 56.02251 h 7.03125 z m -13.67188,0 h -7.03125 V 64.479541 h 7.03125 z m 0.19531,-25.058594 h -7.42187 V 56.02251 h 7.42187 z m -11.34765,1.601562 h -9.08203 v 23.457032 h -7.5 V 62.956103 h -9.08204 v -5.625 h 25.66407 z m -26.8685,18.962016 q 0.87958,3.282638 -1.52258,6.089861 -2.40722,2.788358 -7.51984,4.158279 -2.82986,0.75826 -5.27302,0.846736 -2.44316,0.08848 -4.0111,-0.178885 l -1.4963,-5.584259 0.62257,-0.166817 q 0.60542,0.221964 1.38199,0.478947 0.79038,0.233066 2.14808,0.394996 1.17275,0.150829 2.59815,0.112636 1.42035,-0.05706 2.94848,-0.466517 1.99976,-0.535835 2.84565,-1.227556 0.84083,-0.710585 0.6083,-1.57841 -0.20726,-0.773495 -0.86422,-0.961426 -0.66202,-0.206798 -2.33268,-0.10289 -0.80012,0.03241 -2.15241,0.192554 -1.33847,0.136219 -2.47078,0.136316 -3.08866,0.01879 -4.90935,-1.191854 -1.82575,-1.229511 -2.46269,-3.606595 -0.81892,-3.056249 1.52665,-5.848307 2.35938,-2.815981 7.37767,-4.160626 2.37708,-0.636938 4.67807,-0.72776 2.31481,-0.114745 3.68768,0.103783 l 1.43563,5.35787 -0.58484,0.156707 q -1.78728,-0.633211 -3.90233,-0.753974 -2.10123,-0.144685 -4.08213,0.386096 -1.64132,0.439791 -2.65194,1.195871 -0.99177,0.751028 -0.76934,1.58112 0.2022,0.75463 0.81774,1.014322 0.61552,0.259695 2.60826,0.150368 1.09321,-0.0705 2.33736,-0.181449 1.25796,-0.134866 2.54625,-0.156538 2.86597,-0.01979 4.55325,1.145727 1.68222,1.146651 2.28377,3.391674 z m -22.92188,6.141898 q 0.87958,3.282638 -1.52258,6.08986 -2.40722,2.788358 -7.51984,4.15828 -2.82985,0.758257 -5.27302,0.846735 -2.44316,0.08848 -4.01109,-0.178885 l -1.4963,-5.584259 0.62257,-0.166816 q 0.60542,0.221963 1.38199,0.478946 0.79037,0.233066 2.14808,0.394996 1.17274,0.150829 2.59815,0.112637 1.42035,-0.05706 2.94847,-0.466517 1.99977,-0.535836 2.84566,-1.227557 0.84083,-0.710585 0.60829,-1.578409 -0.20725,-0.773495 -0.86422,-0.961427 -0.66201,-0.206798 -2.33267,-0.10289 -0.80013,0.03241 -2.15241,0.192551 -1.33848,0.136222 -2.47079,0.136319 -3.08866,0.01879 -4.90934,-1.191854 -1.82574,-1.229514 -2.46268,-3.606597 -0.81892,-3.05625 1.52664,-5.848308 2.35938,-2.815978 7.37766,-4.160623 2.37709,-0.636938 4.67808,-0.727759 2.3148,-0.114745 3.68767,0.103782 l 1.43564,5.35787 -0.58484,0.156707 q -1.78729,-0.633211 -3.90233,-0.753974 -2.10124,-0.144684 -4.08214,0.386097 -1.64132,0.43979 -2.65194,1.19587 -0.99176,0.751028 -0.76934,1.58112 0.2022,0.75463 0.81774,1.014322 0.61553,0.259696 2.60826,0.150369 1.09323,-0.0705 2.33737,-0.18145 1.25795,-0.134865 2.54624,-0.156537 2.86598,-0.01979 4.55326,1.145726 1.68221,1.146651 2.28376,3.391675 z m -23.9075,3.595382 -15.54537,4.165369 q 0.81819,2.449837 2.90769,3.305374 2.10837,0.850481 5.5042,-0.05943 2.15069,-0.576276 3.96207,-1.890664 1.81138,-1.314387 2.74347,-2.51449 l 0.75463,-0.202202 1.46091,5.452198 q -2.05392,1.541136 -3.98021,2.502136 -1.92629,0.96099 -4.3977,1.6232 -6.37662,1.70861 -10.54082,-0.24907 -4.16421,-1.95768 -5.58468,-7.258955 -1.4053,-5.244676 0.98295,-9.160285 2.40207,-3.939532 8.0052,-5.440885 5.16921,-1.385085 8.47533,0.539655 3.30108,1.905872 4.61539,6.810964 z m -7.82056,-2.170959 q -0.62782,-2.116661 -1.91584,-2.924092 -1.28802,-0.807428 -3.40099,-0.241262 -1.96203,0.525726 -2.95306,1.883165 -0.99104,1.35744 -0.54041,3.642903 z m -16.78726,18.77362 -6.8294,1.82993 -2.81566,-10.508214 q -0.34375,-1.28287 -0.8145,-2.511489 -0.4758,-1.247485 -0.95828,-1.765252 -0.56435,-0.596932 -1.38605,-0.720502 -0.80284,-0.128625 -2.10457,0.220174 -0.92442,0.247698 -1.8057,0.807358 -0.8624,0.554605 -1.79855,1.513154 l 4.02382,15.017131 -6.79166,1.81982 -7.86567,-29.355091 6.79166,-1.819822 2.81567,10.508217 q 1.43198,-1.900217 2.88996,-3.099691 1.47685,-1.20453 3.51435,-1.750477 3.43357,-0.92002 5.89371,0.564132 2.47901,1.479097 3.54562,5.459768 z m -36.01902,10.23766 q -3.13172,0.83914 -6.03948,0.62748 -2.88891,-0.21671 -5.28469,-1.53613 -2.39578,-1.31942 -4.18524,-3.77186 -1.770601,-2.45751 -2.731062,-6.042 -0.894745,-3.33923 -0.622789,-6.32382 0.271955,-2.984584 1.656724,-5.438316 1.329527,-2.358049 3.754357,-4.099672 2.44369,-1.746679 5.65087,-2.606039 1.77337,-0.475175 3.24391,-0.646782 1.48435,-0.195527 2.77769,-0.198333 1.36005,0.01976 2.50012,0.199564 1.15388,0.155884 2.02848,0.325942 l 1.82488,6.810531 -0.8301,0.222423 q -0.64956,-0.311236 -1.6276,-0.716438 -0.95918,-0.410257 -2.13969,-0.740987 -1.19938,-0.325676 -2.518,-0.417199 -1.31862,-0.09152 -2.69581,0.277498 -1.52813,0.40946 -2.7739,1.268988 -1.25082,0.840663 -2.12225,2.267155 -0.82494,1.373596 -1.04779,3.334015 -0.20399,1.95536 0.47338,4.48337 0.70771,2.6412 1.91865,4.21743 1.22981,1.57118 2.63472,2.28663 1.42884,0.72925 2.96509,0.8029 1.5312,0.0548 2.9084,-0.31423 1.3206,-0.35386 2.49732,-1.09378 1.19558,-0.74498 2.10781,-1.71734 0.77782,-0.79481 1.40336,-1.62969 0.62555,-0.83488 1.0136,-1.42414 l 0.75463,-0.20221 1.7996,6.71621 q -0.9301,0.75472 -1.78104,1.42758 -0.85094,0.67285 -1.82655,1.25779 -1.27104,0.7652 -2.42284,1.29624 -1.1518,0.53105 -3.26476,1.09722 z"
         style="fill:#f4ebd9;fill-opacity:1;stroke:#483d3f;stroke-width:1.51181;stroke-miterlimit:4;stroke-dasharray:none;stroke-opacity:1" />
    </g>
  </g>
</svg>
